<?xml version="1.0" standalone="no"?>
<!DOCTYPE svg PUBLIC "-//W3C//DTD SVG 20010904//EN"
 "http://www.w3.org/TR/2001/REC-SVG-20010904/DTD/svg10.dtd">
<svg version="1.0" xmlns="http://www.w3.org/2000/svg"
 width="856.000000pt" height="857.000000pt" viewBox="0 0 956.000000 957.000000"
 preserveAspectRatio="xMidYMid meet">

<g transform="translate(0.000000,857.000000) scale(0.100000,-0.100000)"
fill="#000000" stroke="none">
<path d="M2572 5696 c-98 -32 -135 -84 -195 -274 -94 -294 -137 -591 -138
-934 0 -366 55 -726 167 -1086 27 -89 43 -122 72 -154 67 -74 83 -78 369 -78
l251 0 28 68 28 69 171 -5 c239 -6 368 16 448 80 l37 29 58 -23 c51 -20 73
-23 207 -22 167 1 246 13 320 48 28 13 76 26 109 29 78 8 157 48 207 106 l41
47 68 -17 c102 -26 196 -33 280 -20 95 15 164 47 221 101 l44 43 105 1 c91 1
112 5 162 28 50 23 138 98 138 118 0 4 19 12 43 19 125 37 251 143 310 259 46
93 61 185 54 337 -15 336 -126 525 -309 525 -21 0 -38 4 -38 9 0 25 -94 110
-152 137 -58 26 -73 29 -174 29 l-111 0 -46 50 c-25 28 -67 63 -94 77 -91 50
-241 58 -403 22 -52 -12 -66 -12 -69 -2 -9 28 -71 75 -122 93 -42 14 -95 19
-233 23 -162 4 -183 6 -208 25 -26 19 -40 21 -209 19 -99 -1 -185 -5 -191 -8
-5 -3 -24 7 -41 24 -18 17 -44 35 -58 41 -39 14 -191 29 -382 37 l-167 7 -19
31 c-11 17 -32 43 -48 57 -27 26 -35 27 -163 33 -74 4 -178 8 -230 11 -65 3
-108 0 -138 -9z"/>
<path d="M1255 4901 c-234 -62 -324 -354 -164 -535 59 -67 150 -109 237 -109
104 -1 165 24 240 99 l63 63 157 3 157 3 0 80 0 80 -218 3 c-201 2 -218 1
-223 -15 -12 -43 -51 -108 -74 -125 -86 -63 -219 -15 -250 89 -19 62 -6 110
43 159 70 69 162 68 231 -3 l36 -38 44 25 c25 13 55 31 67 41 l23 17 -27 39
c-53 77 -140 123 -241 128 -39 3 -84 1 -101 -4z"/>
<path d="M6290 4500 l0 -80 553 1 c308 0 543 4 532 9 -11 4 -96 40 -189 79
l-169 71 -364 0 -363 0 0 -80z"/>
<path d="M1540 2742 c0 -2 10 -16 22 -32 32 -44 37 -98 37 -418 1 -306 -3
-340 -44 -355 -8 -4 -15 -11 -15 -17 0 -6 47 -10 130 -10 72 0 130 3 130 7 0
4 -12 20 -27 36 -28 28 -28 30 -31 179 -2 86 1 155 6 160 6 6 51 -44 122 -134
141 -178 165 -204 215 -231 48 -26 161 -30 213 -8 44 19 35 37 -17 33 -76 -5
-102 19 -325 297 l-115 144 87 95 c112 122 191 194 247 223 25 13 45 27 45 31
0 3 -57 5 -127 5 -127 -2 -128 -2 -126 -25 4 -37 -22 -88 -86 -165 -64 -78
-138 -153 -144 -146 -2 2 -1 63 2 136 6 115 9 136 29 162 12 17 22 31 22 33 0
2 -56 3 -125 3 -69 0 -125 -1 -125 -3z"/>
<path d="M2817 2743 c-4 -4 8 -21 28 -38 32 -26 37 -38 45 -95 5 -36 10 -179
10 -318 0 -268 -4 -296 -49 -336 -44 -40 -33 -42 222 -44 133 -1 256 2 272 6
24 7 37 22 67 82 20 40 35 77 32 82 -14 22 -51 4 -99 -46 -44 -46 -59 -55 -99
-61 -71 -11 -150 2 -180 30 -23 21 -26 32 -26 88 0 35 -3 98 -6 140 l-7 77 77
0 c79 0 131 -15 155 -43 7 -10 24 -17 36 -17 21 0 22 4 24 90 1 83 -1 90 -19
90 -10 0 -30 -11 -43 -24 -30 -30 -70 -38 -157 -34 l-65 3 3 150 c1 82 5 151
7 154 3 2 42 5 88 5 91 1 138 -13 162 -50 10 -15 25 -24 42 -24 25 0 26 1 20
55 -3 30 -8 59 -12 65 -4 7 -88 10 -238 9 -128 0 -243 2 -257 6 -14 3 -29 3
-33 -2z"/>
<path d="M5210 2745 c0 -4 16 -25 35 -46 23 -26 35 -49 35 -69 0 -40 -242
-625 -272 -657 -13 -14 -35 -31 -50 -39 -16 -8 -28 -18 -28 -22 0 -4 47 -6
104 -4 l105 3 -6 34 c-4 24 7 65 43 159 l47 126 112 0 112 0 42 -114 c46 -126
47 -134 26 -162 -30 -40 -20 -47 58 -41 39 3 100 2 135 -2 48 -6 62 -4 62 6 0
7 -4 13 -8 13 -5 0 -22 13 -38 29 -22 22 -65 119 -179 405 l-150 376 -70 0
c-38 0 -80 3 -92 6 -13 4 -23 3 -23 -1z m169 -337 c19 -51 36 -99 39 -105 3
-10 -16 -13 -77 -13 -45 0 -81 3 -81 8 -1 12 75 202 80 202 3 0 21 -42 39 -92z"/>
<path d="M3880 2731 c0 -3 12 -17 26 -33 24 -24 28 -39 36 -135 5 -59 8 -207
6 -328 -4 -229 -9 -258 -52 -294 -9 -8 -16 -17 -16 -22 0 -5 92 -9 203 -9 222
0 271 8 331 54 72 54 106 179 72 260 -20 48 -80 102 -136 122 l-49 18 35 39
c101 112 80 242 -50 309 -33 17 -61 20 -222 21 -101 2 -184 0 -184 -2z m346
-85 c32 -32 34 -38 34 -100 0 -117 -36 -166 -121 -166 l-47 0 -7 70 c-4 39 -4
106 0 150 l7 80 50 0 c44 0 54 -4 84 -34z m49 -364 c52 -36 76 -80 82 -150 9
-114 -47 -165 -174 -160 -41 2 -78 9 -85 16 -9 9 -14 60 -16 174 l-3 160 78
-6 c61 -6 86 -13 118 -34z"/>
<path d="M6260 2725 c0 -6 9 -16 19 -22 33 -21 41 -99 41 -396 0 -263 -1 -286
-20 -322 -11 -22 -27 -43 -35 -48 -44 -24 -7 -29 213 -25 198 3 231 5 262 22
187 99 179 337 -13 411 -26 10 -47 21 -47 24 0 4 14 20 31 37 80 75 87 180 18
258 -51 58 -91 68 -291 70 -115 1 -178 -2 -178 -9z m346 -79 c31 -35 40 -89
26 -156 -16 -76 -53 -110 -122 -110 l-50 0 0 143 c0 79 3 147 8 151 4 4 31 6
61 4 43 -4 59 -10 77 -32z m41 -362 c55 -32 83 -89 83 -171 0 -99 -52 -143
-169 -143 -97 0 -100 6 -101 185 -1 83 -1 154 -1 159 2 17 145 -5 188 -30z"/>
<path d="M1391 1428 c-15 -25 -14 -30 7 -20 9 5 41 12 70 14 l52 5 0 -141 c0
-97 -4 -146 -12 -154 -9 -9 -1 -12 38 -12 35 0 45 3 34 10 -12 7 -15 36 -15
152 l0 143 50 -1 c27 -1 51 -7 53 -13 4 -12 31 15 32 31 0 4 -67 6 -149 5
-130 -2 -151 -4 -160 -19z"/>
<path d="M1950 1441 c0 -6 5 -13 10 -16 6 -3 10 -14 10 -23 0 -21 -106 -241
-127 -264 -15 -17 -14 -18 16 -18 18 0 30 4 27 9 -3 5 5 34 19 65 l25 56 59 0
59 0 21 -49 c11 -27 18 -57 15 -65 -5 -13 2 -16 40 -16 l47 0 -20 28 c-11 15
-48 89 -82 165 -59 129 -64 137 -91 137 -15 0 -28 -4 -28 -9z m69 -124 l20
-47 -24 -6 c-14 -3 -36 -3 -50 0 l-25 6 26 51 c14 28 27 49 29 47 2 -2 13 -25
24 -51z"/>
<path d="M2465 1436 c-37 -16 -92 -77 -101 -112 -10 -39 2 -100 26 -134 44
-62 143 -90 239 -68 60 14 62 19 74 116 l5 42 -39 0 c-37 0 -51 -12 -29 -25 6
-3 10 -26 10 -51 0 -39 -3 -46 -27 -55 -106 -43 -213 32 -213 147 0 110 146
175 244 109 l36 -24 0 28 c0 25 -4 29 -37 35 -62 10 -156 6 -188 -8z"/>
<path d="M2950 1430 c15 -29 15 -277 0 -295 -11 -13 2 -15 99 -15 110 0 112 0
121 26 15 39 12 49 -7 25 -24 -29 -89 -44 -123 -28 -25 12 -25 14 -28 140 -1
76 2 135 8 147 10 19 8 20 -35 20 -43 0 -45 -1 -35 -20z"/>
<path d="M3416 1433 c14 -30 17 -282 3 -299 -10 -12 -4 -14 36 -14 43 0 46 2
34 16 -15 19 -20 253 -6 292 8 21 6 22 -33 22 -37 0 -41 -2 -34 -17z"/>
<path d="M3734 1428 c12 -17 16 -50 16 -146 0 -68 -5 -132 -10 -143 -10 -17
-7 -19 26 -19 30 0 35 2 25 14 -7 8 -15 63 -18 128 l-5 113 134 -132 c73 -73
136 -133 139 -133 4 0 7 71 8 157 1 96 6 162 12 170 9 10 4 13 -26 13 -32 0
-36 -2 -29 -17 11 -23 18 -233 8 -233 -4 0 -61 56 -127 125 -89 94 -125 125
-143 125 -24 0 -24 -1 -10 -22z"/>
<path d="M4305 1430 c13 -14 18 -45 22 -123 6 -113 2 -147 -23 -171 -14 -15
-4 -16 105 -16 l120 0 16 30 c22 42 19 45 -16 16 -23 -20 -42 -26 -75 -26 -73
0 -84 11 -84 80 l0 60 39 0 c22 0 51 -4 65 -10 25 -9 26 -8 26 22 0 25 -3 29
-12 20 -7 -7 -36 -12 -65 -12 l-54 0 3 63 3 62 48 3 c33 2 57 -2 74 -13 24
-16 24 -16 21 7 -3 22 -6 23 -116 25 -110 1 -113 1 -97 -17z"/>
<path d="M5136 1423 c18 -36 20 -273 2 -291 -9 -9 -1 -12 36 -12 43 0 46 1 32
16 -11 11 -16 35 -16 80 l0 64 110 0 110 0 0 -61 c0 -33 -5 -69 -10 -80 -10
-17 -7 -19 30 -19 37 0 40 2 30 19 -5 11 -10 77 -10 146 0 69 5 135 10 146 10
17 7 19 -36 19 -39 0 -45 -2 -35 -14 7 -8 13 -40 14 -73 l2 -58 -108 -3 -109
-3 4 58 c2 32 8 66 12 76 7 15 2 17 -37 17 l-46 0 15 -27z"/>
<path d="M5715 1430 c23 -25 22 -266 -2 -292 -15 -17 -12 -18 103 -18 l119 0
17 30 c20 35 16 37 -19 10 -28 -22 -101 -27 -134 -10 -16 9 -19 22 -19 71 l0
61 48 -4 c26 -3 55 -8 65 -12 14 -7 17 -3 17 23 0 28 -2 31 -19 21 -11 -5 -40
-10 -65 -10 l-46 0 0 65 0 65 53 0 c33 0 61 -6 77 -17 22 -16 23 -16 17 1 -4
10 -7 22 -7 27 0 5 -48 8 -110 7 -102 -1 -109 -3 -95 -18z"/>
<path d="M6190 1440 c0 -4 5 -11 11 -17 17 -17 17 -266 0 -286 -12 -15 -9 -17
35 -17 37 0 45 3 36 12 -7 7 -12 38 -12 70 0 57 1 58 27 58 21 0 43 -16 93
-71 67 -72 110 -95 155 -79 16 6 14 8 -12 13 -32 6 -109 78 -134 124 -11 21
-10 25 8 38 47 33 47 104 -1 139 -23 18 -42 21 -117 21 -49 0 -89 -2 -89 -5z
m183 -41 c13 -17 17 -32 13 -54 -8 -40 -31 -55 -83 -55 l-43 0 0 63 c0 35 3
67 8 71 14 15 86 -2 105 -25z"/>
<path d="M6790 1423 c17 -22 20 -41 20 -142 0 -89 -4 -122 -16 -139 l-15 -22
115 0 115 0 16 30 c18 34 7 40 -20 10 -14 -15 -31 -20 -71 -20 -69 0 -84 15
-84 86 l0 54 39 0 c22 0 51 -4 65 -10 25 -9 26 -8 26 22 0 25 -3 29 -12 20 -7
-7 -36 -12 -65 -12 l-54 0 3 63 3 62 48 3 c33 2 57 -2 74 -13 24 -16 24 -16
21 7 -3 22 -6 23 -115 24 l-113 2 20 -25z"/>
</g>
</svg>
