<?xml version="1.0" standalone="no"?>
<!DOCTYPE svg PUBLIC "-//W3C//DTD SVG 20010904//EN"
 "http://www.w3.org/TR/2001/REC-SVG-20010904/DTD/svg10.dtd">
<svg version="1.0" xmlns="http://www.w3.org/2000/svg"
 width="255.000000pt" height="206.000000pt" viewBox="0 0 255.000000 206.000000"
 preserveAspectRatio="xMidYMid meet">

<g transform="translate(0.000000,206.000000) scale(0.100000,-0.100000)"
fill="#850000" stroke="none">
<path d="M870 2031 c-377 -81 -654 -394 -695 -783 l-7 -68 1128 0 1127 0 -7
74 c-28 307 -228 589 -511 717 -155 70 -172 72 -580 75 -328 3 -380 1 -455
-15z"/>
<path d="M795 1000 c-27 -11 -104 -60 -170 -110 -66 -50 -142 -105 -170 -123
-27 -17 -52 -35 -55 -39 -10 -13 -117 -58 -169 -71 -34 -8 -51 -17 -51 -27 0
-38 34 -142 70 -215 76 -155 176 -253 335 -331 152 -73 177 -76 751 -72 l499
3 88 31 c48 18 113 47 144 65 78 46 209 179 256 259 47 81 85 199 93 290 l7
70 -109 0 -109 0 27 23 c37 31 58 78 58 131 0 78 -11 92 -86 115 -94 30 -162
27 -264 -10 -170 -62 -243 -80 -345 -86 -124 -7 -191 4 -400 64 -196 56 -316
66 -400 33z"/>
</g>
</svg>
